<mxfile host="app.diagrams.net" modified="2023-09-01T08:20:11.148Z" agent="Mozilla/5.0 (Windows NT 10.0; Win64; x64) AppleWebKit/537.36 (KHTML, like Gecko) Chrome/116.0.0.0 Safari/537.36" etag="2eYJaMQDkNNFI8qGyf5h" version="21.7.1" type="github">
  <diagram name="페이지-1" id="szYqE0olk4nXDbQTxXnu">
    <mxGraphModel dx="989" dy="539" grid="1" gridSize="10" guides="1" tooltips="1" connect="1" arrows="1" fold="1" page="1" pageScale="1" pageWidth="827" pageHeight="1169" math="0" shadow="0">
      <root>
        <mxCell id="0" />
        <mxCell id="1" parent="0" />
        <mxCell id="D2YEQWY-wF-1VUIgXaks-1" value="이용자" style="shape=umlActor;verticalLabelPosition=bottom;verticalAlign=top;html=1;" vertex="1" parent="1">
          <mxGeometry x="80" y="310" width="30" height="60" as="geometry" />
        </mxCell>
        <mxCell id="D2YEQWY-wF-1VUIgXaks-3" value="게시판 서비스" style="shape=umlFrame;whiteSpace=wrap;html=1;pointerEvents=0;width=110;height=30;" vertex="1" parent="1">
          <mxGeometry x="190" y="130" width="570" height="460" as="geometry" />
        </mxCell>
        <mxCell id="D2YEQWY-wF-1VUIgXaks-21" style="edgeStyle=orthogonalEdgeStyle;rounded=0;orthogonalLoop=1;jettySize=auto;html=1;exitX=0;exitY=0.5;exitDx=0;exitDy=0;" edge="1" parent="1" source="D2YEQWY-wF-1VUIgXaks-4">
          <mxGeometry relative="1" as="geometry">
            <mxPoint x="110" y="330" as="targetPoint" />
          </mxGeometry>
        </mxCell>
        <mxCell id="D2YEQWY-wF-1VUIgXaks-27" style="edgeStyle=orthogonalEdgeStyle;rounded=0;orthogonalLoop=1;jettySize=auto;html=1;exitX=0.997;exitY=0.387;exitDx=0;exitDy=0;exitPerimeter=0;" edge="1" parent="1">
          <mxGeometry relative="1" as="geometry">
            <mxPoint x="340.0000000000001" y="335.4799999999999" as="sourcePoint" />
            <mxPoint x="404.3944827586207" y="210" as="targetPoint" />
          </mxGeometry>
        </mxCell>
        <mxCell id="D2YEQWY-wF-1VUIgXaks-4" value="게시판 보기" style="rounded=1;whiteSpace=wrap;html=1;arcSize=40;fontColor=#000000;fillColor=#ffffc0;strokeColor=#ff0000;" vertex="1" parent="1">
          <mxGeometry x="230" y="320" width="120" height="40" as="geometry" />
        </mxCell>
        <mxCell id="D2YEQWY-wF-1VUIgXaks-18" style="edgeStyle=orthogonalEdgeStyle;rounded=0;orthogonalLoop=1;jettySize=auto;html=1;entryX=1;entryY=0.3333333333333333;entryDx=0;entryDy=0;entryPerimeter=0;" edge="1" parent="1" source="D2YEQWY-wF-1VUIgXaks-6" target="D2YEQWY-wF-1VUIgXaks-1">
          <mxGeometry relative="1" as="geometry" />
        </mxCell>
        <mxCell id="D2YEQWY-wF-1VUIgXaks-6" value="회원 가입" style="rounded=1;whiteSpace=wrap;html=1;arcSize=40;fontColor=#000000;fillColor=#ffffc0;strokeColor=#ff0000;" vertex="1" parent="1">
          <mxGeometry x="230" y="220" width="120" height="40" as="geometry" />
        </mxCell>
        <mxCell id="D2YEQWY-wF-1VUIgXaks-22" style="edgeStyle=orthogonalEdgeStyle;rounded=0;orthogonalLoop=1;jettySize=auto;html=1;entryX=1;entryY=0.3333333333333333;entryDx=0;entryDy=0;entryPerimeter=0;" edge="1" parent="1" source="D2YEQWY-wF-1VUIgXaks-7" target="D2YEQWY-wF-1VUIgXaks-1">
          <mxGeometry relative="1" as="geometry" />
        </mxCell>
        <mxCell id="D2YEQWY-wF-1VUIgXaks-28" style="edgeStyle=orthogonalEdgeStyle;rounded=0;orthogonalLoop=1;jettySize=auto;html=1;exitX=1;exitY=0.5;exitDx=0;exitDy=0;entryX=0.5;entryY=1;entryDx=0;entryDy=0;" edge="1" parent="1" source="D2YEQWY-wF-1VUIgXaks-7" target="D2YEQWY-wF-1VUIgXaks-8">
          <mxGeometry relative="1" as="geometry">
            <Array as="points">
              <mxPoint x="350" y="360" />
              <mxPoint x="414" y="360" />
            </Array>
          </mxGeometry>
        </mxCell>
        <mxCell id="D2YEQWY-wF-1VUIgXaks-7" value="게시글 보기" style="rounded=1;whiteSpace=wrap;html=1;arcSize=40;fontColor=#000000;fillColor=#ffffc0;strokeColor=#ff0000;" vertex="1" parent="1">
          <mxGeometry x="230" y="430" width="120" height="40" as="geometry" />
        </mxCell>
        <mxCell id="D2YEQWY-wF-1VUIgXaks-19" style="edgeStyle=orthogonalEdgeStyle;rounded=0;orthogonalLoop=1;jettySize=auto;html=1;" edge="1" parent="1" source="D2YEQWY-wF-1VUIgXaks-8">
          <mxGeometry relative="1" as="geometry">
            <mxPoint x="110" y="330" as="targetPoint" />
          </mxGeometry>
        </mxCell>
        <mxCell id="D2YEQWY-wF-1VUIgXaks-23" style="edgeStyle=orthogonalEdgeStyle;rounded=0;orthogonalLoop=1;jettySize=auto;html=1;exitX=1;exitY=0.5;exitDx=0;exitDy=0;dashed=1;" edge="1" parent="1" source="D2YEQWY-wF-1VUIgXaks-8" target="D2YEQWY-wF-1VUIgXaks-10">
          <mxGeometry relative="1" as="geometry" />
        </mxCell>
        <mxCell id="D2YEQWY-wF-1VUIgXaks-24" style="edgeStyle=orthogonalEdgeStyle;rounded=0;orthogonalLoop=1;jettySize=auto;html=1;exitX=1;exitY=0.5;exitDx=0;exitDy=0;entryX=0;entryY=0.5;entryDx=0;entryDy=0;" edge="1" parent="1" source="D2YEQWY-wF-1VUIgXaks-8" target="D2YEQWY-wF-1VUIgXaks-11">
          <mxGeometry relative="1" as="geometry">
            <Array as="points">
              <mxPoint x="430" y="190" />
              <mxPoint x="430" y="260" />
            </Array>
          </mxGeometry>
        </mxCell>
        <mxCell id="D2YEQWY-wF-1VUIgXaks-25" value="&amp;lt;&amp;lt;include&amp;gt;&amp;gt;" style="edgeLabel;html=1;align=center;verticalAlign=middle;resizable=0;points=[];" vertex="1" connectable="0" parent="D2YEQWY-wF-1VUIgXaks-24">
          <mxGeometry x="-0.4958" y="-2" relative="1" as="geometry">
            <mxPoint x="102" y="-28" as="offset" />
          </mxGeometry>
        </mxCell>
        <mxCell id="D2YEQWY-wF-1VUIgXaks-26" value="&amp;lt;&amp;lt;extend&amp;gt;&amp;gt;" style="edgeLabel;html=1;align=center;verticalAlign=middle;resizable=0;points=[];" vertex="1" connectable="0" parent="D2YEQWY-wF-1VUIgXaks-24">
          <mxGeometry x="0.218" relative="1" as="geometry">
            <mxPoint as="offset" />
          </mxGeometry>
        </mxCell>
        <mxCell id="D2YEQWY-wF-1VUIgXaks-8" value="회원 로그인" style="rounded=1;whiteSpace=wrap;html=1;arcSize=40;fontColor=#000000;fillColor=#ffffc0;strokeColor=#ff0000;" vertex="1" parent="1">
          <mxGeometry x="354" y="170" width="120" height="40" as="geometry" />
        </mxCell>
        <mxCell id="D2YEQWY-wF-1VUIgXaks-10" value="인증" style="rounded=1;whiteSpace=wrap;html=1;arcSize=40;fontColor=#000000;fillColor=#ffffc0;strokeColor=#ff0000;" vertex="1" parent="1">
          <mxGeometry x="600" y="170" width="120" height="40" as="geometry" />
        </mxCell>
        <mxCell id="D2YEQWY-wF-1VUIgXaks-11" value="로그인 실패" style="rounded=1;whiteSpace=wrap;html=1;arcSize=40;fontColor=#000000;fillColor=#ffffc0;strokeColor=#ff0000;" vertex="1" parent="1">
          <mxGeometry x="600" y="240" width="120" height="40" as="geometry" />
        </mxCell>
        <mxCell id="D2YEQWY-wF-1VUIgXaks-29" style="edgeStyle=orthogonalEdgeStyle;rounded=0;orthogonalLoop=1;jettySize=auto;html=1;exitX=0;exitY=0.5;exitDx=0;exitDy=0;entryX=1;entryY=0.5;entryDx=0;entryDy=0;" edge="1" parent="1" source="D2YEQWY-wF-1VUIgXaks-13" target="D2YEQWY-wF-1VUIgXaks-4">
          <mxGeometry relative="1" as="geometry" />
        </mxCell>
        <mxCell id="D2YEQWY-wF-1VUIgXaks-13" value="게시판 정렬" style="rounded=1;whiteSpace=wrap;html=1;arcSize=40;fontColor=#000000;fillColor=#ffffc0;strokeColor=#ff0000;" vertex="1" parent="1">
          <mxGeometry x="490" y="290" width="120" height="40" as="geometry" />
        </mxCell>
        <mxCell id="D2YEQWY-wF-1VUIgXaks-30" style="edgeStyle=orthogonalEdgeStyle;rounded=0;orthogonalLoop=1;jettySize=auto;html=1;exitX=0;exitY=0.5;exitDx=0;exitDy=0;entryX=1;entryY=0.75;entryDx=0;entryDy=0;" edge="1" parent="1" source="D2YEQWY-wF-1VUIgXaks-14" target="D2YEQWY-wF-1VUIgXaks-4">
          <mxGeometry relative="1" as="geometry" />
        </mxCell>
        <mxCell id="D2YEQWY-wF-1VUIgXaks-14" value="게시판 검색" style="rounded=1;whiteSpace=wrap;html=1;arcSize=40;fontColor=#000000;fillColor=#ffffc0;strokeColor=#ff0000;" vertex="1" parent="1">
          <mxGeometry x="490" y="350" width="120" height="40" as="geometry" />
        </mxCell>
        <mxCell id="D2YEQWY-wF-1VUIgXaks-32" style="edgeStyle=orthogonalEdgeStyle;rounded=0;orthogonalLoop=1;jettySize=auto;html=1;exitX=0;exitY=0.5;exitDx=0;exitDy=0;entryX=1;entryY=0.5;entryDx=0;entryDy=0;" edge="1" parent="1" source="D2YEQWY-wF-1VUIgXaks-15" target="D2YEQWY-wF-1VUIgXaks-7">
          <mxGeometry relative="1" as="geometry" />
        </mxCell>
        <mxCell id="D2YEQWY-wF-1VUIgXaks-15" value="게시글 작성, 수정, 삭제" style="rounded=1;whiteSpace=wrap;html=1;arcSize=40;fontColor=#000000;fillColor=#ffffc0;strokeColor=#ff0000;" vertex="1" parent="1">
          <mxGeometry x="460" y="410" width="180" height="40" as="geometry" />
        </mxCell>
        <mxCell id="D2YEQWY-wF-1VUIgXaks-33" style="edgeStyle=orthogonalEdgeStyle;rounded=0;orthogonalLoop=1;jettySize=auto;html=1;exitX=0;exitY=0.5;exitDx=0;exitDy=0;entryX=1;entryY=0.5;entryDx=0;entryDy=0;" edge="1" parent="1" source="D2YEQWY-wF-1VUIgXaks-17" target="D2YEQWY-wF-1VUIgXaks-7">
          <mxGeometry relative="1" as="geometry" />
        </mxCell>
        <mxCell id="D2YEQWY-wF-1VUIgXaks-17" value="댓글 작성, 수정, 삭제" style="rounded=1;whiteSpace=wrap;html=1;arcSize=40;fontColor=#000000;fillColor=#ffffc0;strokeColor=#ff0000;" vertex="1" parent="1">
          <mxGeometry x="460" y="470" width="180" height="40" as="geometry" />
        </mxCell>
      </root>
    </mxGraphModel>
  </diagram>
</mxfile>
